<?xml version="1.0" standalone="no"?>
<svg xmlns="http://www.w3.org/2000/svg" viewBox="0 0 439.8415134158474 158.57198216584737" width="439.8415134158474" height="158.57198216584737"><rect fill="#00005f" width="439.8415134158474" height="158.57198216584737" x="0" y="0"></rect><g fill="white" color="white" transform="translate(293.27 12) scale(2.5879228)"><svg width="52.0" height="52.0" x="0.0" y="0.0" viewBox="0 0 52 52"><path fill="currentColor" fill-rule="evenodd" d="M35.604 29.304l-3.67-6.302 4.956-8.626 8.687 14.928h-9.973zm-7.279 0l2.875-4.956 2.875 4.956h-5.75zm-5.017 0h-6.546l3.242-5.69 3.304 5.69zm-17.252 0l8.626-14.928 4.588 7.892-4.037 7.036H6.056zm31.017-17.436c-.06-.122-.183-.122-.245 0L31.2 21.595l-5.628-9.727c-.062-.122-.184-.122-.245 0l-5.2 9.054-5.2-9.054c-.06-.122-.184-.122-.245 0L3.854 30.405v.183c0 .061.061.061.122.061h21.412c.061 0 .122 0 .122-.06v-.184l-4.65-8.137 4.59-7.892 4.954 8.626-4.282 7.464v.183c0 .062.062.062.122.062h21.412c.062 0 .123 0 .123-.062v-.183L37.073 11.868zM3.059 32.24c-.551-2.019-.918-4.16-.918-6.424 0-13.03 10.584-23.675 23.675-23.675 13.031 0 23.676 10.584 23.676 23.675 0 2.203-.306 4.344-.918 6.424H3.059zm44.475 2.936H4.099c-.245-.489-.429-1.04-.612-1.59h44.659c-.184.55-.428 1.101-.612 1.59zm-1.53 2.998H5.628c-.306-.49-.612-1.04-.856-1.59h42.089c-.245.55-.55 1.04-.857 1.59zm-2.202 2.937H7.77c-.428-.49-.856-1.04-1.223-1.591h38.48c-.367.55-.795 1.101-1.224 1.59zm-2.998 2.997H10.767c-.612-.49-1.163-1.04-1.713-1.59H42.58c-.551.55-1.163 1.04-1.775 1.59zm-4.588 2.937H15.355c-.918-.49-1.835-.98-2.753-1.59h26.306c-.795.61-1.712 1.1-2.692 1.59zm-10.4 2.447c-2.447 0-4.772-.367-6.973-1.04H32.73a23.34 23.34 0 0 1-6.914 1.04zm0-49.492C11.562 0 0 11.624 0 25.816c0 14.255 11.562 25.817 25.816 25.817 7.892 0 14.927-3.548 19.699-9.177.062-.06.122-.122.184-.183 3.732-4.466 5.934-10.217 5.934-16.457C51.633 11.624 40.009 0 25.816 0z"></path></svg></g><path fill="white" fill-rule="nonzero" d="M19.61 3.52L19.61 8.81L16.70 8.81L15.98 4.75Q15.10 4.00 13.63 3.52Q12.17 3.03 10.23 3.03L10.23 3.03Q7.17 3.03 5.53 4.33Q3.89 5.63 3.89 7.71L3.89 7.71Q3.89 9.57 5.56 10.81Q7.23 12.05 10.96 12.99L10.96 12.99Q15.45 14.10 17.78 16.27Q20.12 18.44 20.12 21.64L20.12 21.64Q20.12 25.08 17.31 27.17Q14.51 29.26 9.98 29.26L9.98 29.26Q6.70 29.26 4.15 28.18Q1.60 27.11 0 25.37L0 25.37L0 20.08L2.89 20.08L3.63 24.16Q4.75 25.08 6.29 25.66Q7.83 26.25 9.98 26.25L9.98 26.25Q12.89 26.25 14.58 25.02Q16.27 23.79 16.27 21.68L16.27 21.68Q16.27 19.73 14.80 18.41Q13.34 17.09 9.63 16.19L9.63 16.19Q5.12 15.12 2.58 13.03Q0.04 10.94 0.04 7.77L0.04 7.77Q0.04 4.43 2.87 2.22Q5.70 0 10.23 0L10.23 0Q13.22 0 15.67 1.03Q18.13 2.05 19.61 3.52L19.61 3.52ZM26.54 3.44L23.36 2.89L23.36 0.41L33.57 0.41L33.57 2.89L30.39 3.44L30.39 25.84L33.57 26.39L33.57 28.85L23.36 28.85L23.36 26.39L26.54 25.84L26.54 3.44ZM35.64 0.41L59.28 0.41L59.28 6.70L56.00 6.70L55.70 3.44L49.39 3.44L49.39 25.84L52.58 26.39L52.58 28.85L42.36 28.85L42.36 26.39L45.55 25.84L45.55 3.44L39.22 3.44L38.95 6.70L35.64 6.70L35.64 0.41ZM83.44 28.85L61.39 28.85L61.39 26.39L64.57 25.84L64.57 3.44L61.39 2.89L61.39 0.41L83.22 0.41L83.22 7.25L79.92 7.25L79.61 3.44L68.42 3.44L68.42 12.64L79.30 12.64L79.30 15.66L68.42 15.66L68.42 25.84L79.84 25.84L80.16 22.03L83.44 22.03L83.44 28.85Z" transform="translate(12 12) scale(3.192)"></path><path fill="white" fill-rule="nonzero" d="M0 0.41L23.63 0.41L23.63 6.70L20.35 6.70L20.06 3.44L13.75 3.44L13.75 25.84L16.93 26.39L16.93 28.85L6.72 28.85L6.72 26.39L9.90 25.84L9.90 3.44L3.57 3.44L3.30 6.70L0 6.70L0 0.41ZM50.53 14.43L50.53 14.84Q50.53 21.05 46.96 25.16Q43.40 29.26 37.73 29.26L37.73 29.26Q32.23 29.26 28.79 25.16Q25.35 21.05 25.35 14.84L25.35 14.84L25.35 14.43Q25.35 8.24 28.79 4.12Q32.23 0 37.73 0L37.73 0Q43.40 0 46.96 4.12Q50.53 8.24 50.53 14.43L50.53 14.43ZM46.68 14.84L46.68 14.39Q46.68 9.43 44.31 6.30Q41.93 3.16 37.73 3.16L37.73 3.16Q33.71 3.16 31.46 6.31Q29.20 9.45 29.20 14.39L29.20 14.39L29.20 14.84Q29.20 19.84 31.46 22.98Q33.71 26.11 37.73 26.11L37.73 26.11Q41.99 26.11 44.34 22.99Q46.68 19.86 46.68 14.84L46.68 14.84ZM56.39 0.41L63.42 0.41L63.42 2.89L60.23 3.44L60.23 19.69Q60.23 22.91 62.07 24.58Q63.91 26.25 66.91 26.25L66.91 26.25Q70.08 26.25 72.01 24.59Q73.95 22.93 73.95 19.69L73.95 19.69L73.95 3.44L70.76 2.89L70.76 0.41L77.79 0.41L80.98 0.41L80.98 2.89L77.79 3.44L77.79 19.69Q77.79 24.32 74.78 26.79Q71.76 29.26 66.91 29.26L66.91 29.26Q62.21 29.26 59.30 26.79Q56.39 24.32 56.39 19.69L56.39 19.69L56.39 3.44L53.20 2.89L53.20 0.41L56.39 0.41ZM86.70 0.43L96.00 0.43Q100.64 0.43 103.13 2.49Q105.61 4.55 105.61 8.34L105.61 8.34Q105.61 10.41 104.45 12.01Q103.30 13.61 101.15 14.53L101.15 14.53Q103.48 15.29 104.50 17.01Q105.53 18.73 105.53 21.25L105.53 21.25L105.53 23.54Q105.53 24.84 105.86 25.47Q106.19 26.09 106.95 26.21L106.95 26.21L107.89 26.33L107.89 28.85L105.82 28.85Q103.57 28.85 102.63 27.29Q101.68 25.72 101.68 23.50L101.68 23.50L101.68 21.29Q101.68 18.96 100.33 17.56Q98.98 16.15 96.72 16.15L96.72 16.15L90.55 16.15L90.55 25.84L93.73 26.39L93.73 28.85L83.52 28.85L83.52 26.39L86.70 25.84L86.70 3.44L83.52 2.89L83.52 0.43L86.70 0.43ZM90.55 3.44L90.55 13.13L95.61 13.13Q98.83 13.13 100.29 11.89Q101.76 10.66 101.76 8.30L101.76 8.30Q101.76 6.05 100.35 4.75Q98.95 3.44 96.00 3.44L96.00 3.44L90.55 3.44ZM113.75 3.44L110.57 2.89L110.57 0.41L120.78 0.41L120.78 2.89L117.60 3.44L117.60 25.84L120.78 26.39L120.78 28.85L110.57 28.85L110.57 26.39L113.75 25.84L113.75 3.44ZM144.10 3.52L144.10 8.81L141.19 8.81L140.47 4.75Q139.59 4.00 138.13 3.52Q136.66 3.03 134.73 3.03L134.73 3.03Q131.66 3.03 130.02 4.33Q128.38 5.63 128.38 7.71L128.38 7.71Q128.38 9.57 130.05 10.81Q131.72 12.05 135.45 12.99L135.45 12.99Q139.94 14.10 142.28 16.27Q144.61 18.44 144.61 21.64L144.61 21.64Q144.61 25.08 141.81 27.17Q139.00 29.26 134.47 29.26L134.47 29.26Q131.19 29.26 128.64 28.18Q126.09 27.11 124.49 25.37L124.49 25.37L124.49 20.08L127.38 20.08L128.13 24.16Q129.24 25.08 130.78 25.66Q132.32 26.25 134.47 26.25L134.47 26.25Q137.38 26.25 139.07 25.02Q140.76 23.79 140.76 21.68L140.76 21.68Q140.76 19.73 139.30 18.41Q137.83 17.09 134.12 16.19L134.12 16.19Q129.61 15.12 127.07 13.03Q124.53 10.94 124.53 7.77L124.53 7.77Q124.53 4.43 127.36 2.22Q130.20 0 134.73 0L134.73 0Q137.71 0 140.17 1.03Q142.62 2.05 144.10 3.52L144.10 3.52ZM147.21 0.41L170.84 0.41L170.84 6.70L167.56 6.70L167.27 3.44L160.96 3.44L160.96 25.84L164.14 26.39L164.14 28.85L153.93 28.85L153.93 26.39L157.11 25.84L157.11 3.44L150.78 3.44L150.51 6.70L147.21 6.70L147.21 0.41ZM176.11 3.44L172.93 2.89L172.93 0.41L183.14 0.41L183.14 2.89L179.96 3.44L179.96 25.84L183.14 26.39L183.14 28.85L172.93 28.85L172.93 26.39L176.11 25.84L176.11 3.44ZM211.21 14.43L211.21 14.84Q211.21 18.63 209.80 21.76Q208.40 24.88 205.88 26.80L205.88 26.80L211.64 30.86L209.00 33.20L202.54 28.59Q201.56 28.91 200.53 29.08Q199.49 29.26 198.42 29.26L198.42 29.26Q192.91 29.26 189.47 25.16Q186.04 21.05 186.04 14.84L186.04 14.84L186.04 14.43Q186.04 8.24 189.47 4.12Q192.91 0 198.42 0L198.42 0Q204.08 0 207.65 4.12Q211.21 8.24 211.21 14.43L211.21 14.43ZM207.36 14.84L207.36 14.39Q207.36 9.43 204.99 6.30Q202.62 3.16 198.42 3.16L198.42 3.16Q194.39 3.16 192.14 6.31Q189.88 9.45 189.88 14.39L189.88 14.39L189.88 14.84Q189.88 19.84 192.14 22.98Q194.39 26.11 198.42 26.11L198.42 26.11Q202.68 26.11 205.02 22.99Q207.36 19.86 207.36 14.84L207.36 14.84ZM217.09 0.41L224.12 0.41L224.12 2.89L220.94 3.44L220.94 19.69Q220.94 22.91 222.77 24.58Q224.61 26.25 227.62 26.25L227.62 26.25Q230.78 26.25 232.71 24.59Q234.65 22.93 234.65 19.69L234.65 19.69L234.65 3.44L231.46 2.89L231.46 0.41L238.50 0.41L241.68 0.41L241.68 2.89L238.50 3.44L238.50 19.69Q238.50 24.32 235.48 26.79Q232.46 29.26 227.62 29.26L227.62 29.26Q222.91 29.26 220 26.79Q217.09 24.32 217.09 19.69L217.09 19.69L217.09 3.44L213.91 2.89L213.91 0.41L217.09 0.41ZM266.27 28.85L244.22 28.85L244.22 26.39L247.40 25.84L247.40 3.44L244.22 2.89L244.22 0.41L266.05 0.41L266.05 7.25L262.75 7.25L262.44 3.44L251.25 3.44L251.25 12.64L262.13 12.64L262.13 15.66L251.25 15.66L251.25 25.84L262.68 25.84L262.99 22.03L266.27 22.03L266.27 28.85Z" transform="translate(12 113.369) scale(1)"></path></svg>